<?xml version="1.0" encoding="utf-8"?>
<!-- Generator: Adobe Illustrator 24.0.2, SVG Export Plug-In . SVG Version: 6.00 Build 0)  -->
<svg version="1.1" xmlns="http://www.w3.org/2000/svg" xmlns:xlink="http://www.w3.org/1999/xlink" x="0px" y="0px"
	 viewBox="0 0 500 433.8" style="enable-background:new 0 0 500 433.8;" xml:space="preserve">
<style type="text/css">
	.st0{display:none;}
	.st1{display:inline;}
	.st2{fill:#FFFFFF;}
	.st3{fill:#F7F7F7;}
</style>
<g id="Layer_1" class="st0">
	<g class="st1">
		<path class="st2" d="M296,234.9c-33.7,0-67.4,0-101,0c0-19,0-38,0-57c33.7,0,67.4,0,101,0C296,196.9,296,215.9,296,234.9z
			 M216,184.3c-0.8,1-1.5,1.5-1.8,2.2c-3.4,6.6-5.5,13.6-5.1,21.2c0.2,5.1,1.6,9.9,4.6,14.1c7.3,10,22.9,9.4,29.3-1.1
			c0.9-1.4,1.5-2.7-1-3.4c-0.8,1-1.7,2-2.5,3c-7.8,8.9-20.6,7-25.3-3.9c-3.9-9.1-2-17.8,2.2-27.3c1.3,2.4,2.1,4,2.9,5.7
			c0.8,1.8,1.6,3.5,2.3,5c4.6,0,8.5,0,12.7,0c1.6-3.2,3.2-6.5,5.2-10.4c0.8,1.7,1.3,2.6,1.6,3.5c0.4,1.1,0.6,2.2,0.9,3.2
			c-1.3,1.5-2.5,2.6-3.4,4c-1,1.5-1.9,3.2-2.4,4.9c-0.7,2.7,0.8,5.1,3.3,5.9c2.6,0.9,5.2-0.1,6.2-2.7c0.7-2,0.8-4.2,0.8-6.3
			c0-1.6-0.4-3.2-0.6-4.5c9.7-7,25.1-7.3,34.4-0.8c2.5,1.8,4.6,4.3,6.6,6.7c1.1,1.4,1.9,3.3-0.7,4.8c-4.8-2.1-7.1-8.2-13.8-8.7
			c0.5,1.7,0.7,2.9,1.1,4.1c1.4,3.6,3.1,7,4.5,10.6c2.1,5.6,0.7,8.9-5,10.9c-5.8,2.1-11.8,2.1-17.7,0.4c-7-2-8.7-5.7-6-12.4
			c1.4-3.6,3.1-7,4.6-10.5c0.5-1.3,1-2.6-1.3-3.1c-0.4,0.4-1,0.8-1.2,1.3c-2,4.6-4.1,9.1-5.8,13.8c-2,5.5-0.3,10,5.1,12.5
			c8.3,3.9,16.9,3.9,25.2,0.2c5.9-2.7,7.5-7.1,5.4-13.2c-0.9-2.6-2-5.1-2.9-7.7c0.3-0.2,0.6-0.4,0.9-0.6c1.2,1.4,2.2,3,3.5,4.2
			c1.7,1.7,3.8,1.9,6,0.6c2.1-1.3,2.8-3.4,2.1-5.6c-0.7-2-1.8-3.9-3.1-5.6c-9.7-12.4-29.3-12.3-39.9-6.9c-1,0.5-1.9,0.9-2.8,1.3
			c-2.1-3-2.1-6.7-5.4-8.8c-4,3.2-4.9,8.3-7.5,11.9c-3,0-5.7,0-8.6,0C221.3,192.5,220.1,187.8,216,184.3z M263.4,219.3
			c2.2-0.8,4.4-1.2,6.2-2.3c2.2-1.3,2.1-3.3,0.2-4.8c-2.9-2.3-10-2.2-12.7,0.2c-1.5,1.4-1.7,3.1,0,4.2
			C259,217.8,261.2,218.4,263.4,219.3z"/>
		<path d="M216,184.3c4.2,3.5,5.4,8.2,7.6,12c2.9,0,5.5,0,8.6,0c2.6-3.6,3.5-8.7,7.5-11.9c3.3,2.1,3.4,5.9,5.4,8.8
			c0.9-0.4,1.9-0.9,2.8-1.3c10.6-5.4,30.2-5.5,39.9,6.9c1.3,1.7,2.4,3.6,3.1,5.6c0.7,2.2,0,4.3-2.1,5.6c-2.1,1.3-4.2,1.1-6-0.6
			c-1.3-1.3-2.4-2.8-3.5-4.2c-0.3,0.2-0.6,0.4-0.9,0.6c1,2.6,2,5.1,2.9,7.7c2.1,6.1,0.6,10.5-5.4,13.2c-8.3,3.7-16.9,3.6-25.2-0.2
			c-5.3-2.5-7.1-6.9-5.1-12.5c1.7-4.7,3.8-9.2,5.8-13.8c0.2-0.5,0.8-0.9,1.2-1.3c2.3,0.5,1.8,1.9,1.3,3.1c-1.5,3.5-3.2,7-4.6,10.5
			c-2.7,6.8-1,10.4,6,12.4c5.9,1.7,11.9,1.7,17.7-0.4c5.6-2,7.1-5.3,5-10.9c-1.4-3.6-3-7.1-4.5-10.6c-0.5-1.1-0.7-2.4-1.1-4.1
			c6.7,0.5,9.1,6.7,13.8,8.7c2.6-1.5,1.8-3.4,0.7-4.8c-2-2.4-4.1-4.9-6.6-6.7c-9.3-6.5-24.7-6.2-34.4,0.8c0.2,1.3,0.6,3,0.6,4.5
			c0,2.1-0.1,4.4-0.8,6.3c-1,2.6-3.6,3.6-6.2,2.7c-2.5-0.8-4-3.2-3.3-5.9c0.4-1.7,1.4-3.4,2.4-4.9c0.9-1.4,2.1-2.5,3.4-4
			c-0.3-1-0.6-2.1-0.9-3.2c-0.3-0.9-0.8-1.8-1.6-3.5c-2,3.9-3.6,7.3-5.2,10.4c-4.2,0-8.2,0-12.7,0c-0.6-1.4-1.4-3.2-2.3-5
			c-0.8-1.6-1.6-3.2-2.9-5.7c-4.2,9.5-6,18.2-2.2,27.3c4.6,10.9,17.4,12.8,25.3,3.9c0.9-1,1.7-2,2.5-3c2.5,0.7,1.9,2,1,3.4
			c-6.4,10.5-22,11.2-29.3,1.1c-3.1-4.2-4.4-9-4.6-14.1c-0.3-7.5,1.7-14.5,5.1-21.2C214.5,185.9,215.1,185.3,216,184.3z
			 M242.4,199.2c-1.4,2.7-2.5,4.3-3.1,6.1c-0.2,0.6,0.6,2,1.3,2.2c0.6,0.2,1.9-0.4,2.3-1C244.2,204.5,243.8,202.4,242.4,199.2z"/>
		<path d="M263.4,219.3c-2.2-0.9-4.4-1.5-6.3-2.7c-1.7-1.1-1.5-2.8,0-4.2c2.6-2.4,9.8-2.5,12.7-0.2c1.9,1.5,2,3.6-0.2,4.8
			C267.8,218.1,265.6,218.5,263.4,219.3z"/>
		<path class="st2" d="M242.4,199.2c1.3,3.2,1.7,5.3,0.5,7.3c-0.4,0.6-1.7,1.3-2.3,1c-0.6-0.2-1.5-1.6-1.3-2.2
			C240,203.5,241,201.9,242.4,199.2z"/>
	</g>
	<ellipse class="st1" cx="219.3" cy="207.6" rx="2" ry="2.7"/>
	<ellipse class="st1" cx="229.5" cy="207.6" rx="2" ry="2.7"/>
	<path class="st1" d="M223.6,211.8l-1.8,3.1c-0.3,0.6,0.1,1.2,0.7,1.2h3.5c0.6,0,1-0.7,0.7-1.2l-1.8-3.1
		C224.7,211.2,223.9,211.2,223.6,211.8z"/>
</g>
<g id="Layer_2">
	<g>
		<path class="st3" d="M58.9,232.1c1.3,8.7-3.3,11.7-7,14.6C22.5,269.5,22,318.4,45.3,348c13.7,17.5,31.8,25.1,55.7,20.5
			C87,347.3,83.5,325,85.3,301.3c2.2-30.4,14.9-55.6,38.1-74.5c16.7-13.5,35.2-25.1,53.7-36.2c16.8-10.1,34.2-19.5,52.3-27
			c24.8-10.4,35.4-27.7,33.4-54.4c-1.8-23.4,2.1-46.3,11.6-67.9c4-9.1,9.6-17.6,15.3-25.8c3.1-4.4,8.7-9.4,14-5.7
			c3.6,2.5,6.1,9.2,6,14c-0.2,7.3-3,14.6-4.7,21.9c-2.6,11.2-6,22.3-7.6,33.7c-1,6.8,0,14.2,1.6,21c3.3,14.3,14.6,24.6,26.6,25.5
			c11.4,0.8,22.9-6.8,27.7-21.6c4.3-13.2,6.5-27.3,8.4-41.1c1.6-12.4,0.6-25.2,2.4-37.6c2-14.6,11.9-23.3,26-25.3
			c13.3-1.9,26.7,4.5,33.1,16.1c2.2,3.9,3.9,8.2,7,14.7c13,1.5,27.3,3.5,41.7,4.6c23.8,1.8,26.5,5.5,21.8,29
			c-4.7,23.1-16.8,38-41.3,41.6c-12.9,1.9-25.7,5-38.3,8.4c-7.2,2-14.2,5.1-20.7,8.8c-10.9,6.1-17.5,15.9-16.6,28.5
			c0.9,12.9,1.8,26.5,6.4,38.4c17.4,45.3,14.9,90.9,4.7,136.8c-3.9,17.6-9,34.9-13.7,53c17.5,4.3,23.9,17.1,27.4,33.9
			c-17.2,5-34.1,5.7-51,2.2c-8.2-1.7-12.8-7.6-12.7-16.5c0.1-6,0.2-12.1,0-18.1c-1.4-29.8-15-52.3-42.5-64.2
			c-12.2-5.3-26-7.3-39.3-9.3c-9.3-1.4-19.1-0.3-30.4-0.3c19.6-27.4,24.9-55.3,9.4-87.8c-8.1,6.7-14.8,12.2-22.3,18.4
			c-8.3-1.5-17.7-3.1-26.9-4.8c-3.4-7.3-6.6-14.4-11-23.9c-16.2,21.1-27.2,41.3-24.7,66.4c1.5,14.9,9.1,26.5,22.9,33.3
			c14.4,7.1,23.6,18.6,28.3,33.8c5.1,16.5,1.9,26.5-11.4,37.3c-1.9,1.5-3.9,2.9-7.9,5.7c4.9,1.1,7.8,1.9,10.9,2.4
			c8.4,1.3,17.2,1.6,25.2,4c15.9,4.8,21.9,13.8,22.8,31.3c-33,18.8-91.1,8.4-120.1-20.6c-17-1.6-33.4-1.2-48.8-5.1
			c-36.9-9.2-58.1-34.8-65.5-71.4c-7-34.4,5.2-62.4,32.6-83.8C44.6,239.1,51.4,236.3,58.9,232.1z M383.4,31.2
			c8.7,14.8,19.2,16.7,34.8,6.9C410.2,22.3,403.6,20.8,383.4,31.2z"/>
		<path class="st3" d="M195.7,275.3c2.5-16.8,7.6-19.9,24.7-16.5C220.5,274.9,213.9,279.4,195.7,275.3z"/>
		<path class="st3" d="M178.7,271.3c-16.1,0.5-19.8-5.1-14.3-20.8C178.7,254.4,180.2,256.4,178.7,271.3z"/>
		<path class="st3" d="M183.2,292.9c-2.2-3.1-3.5-4.6-4.4-6.3c-0.6-1.2-0.7-2.8-1.4-6c5.4,1.2,9.7,2.1,16.5,3.5
			C189.3,287.9,186.8,289.9,183.2,292.9z"/>
	</g>
</g>
</svg>
